<svg width="300" height="100" viewBox="0 0 300 100" fill="none" xmlns="http://www.w3.org/2000/svg">
<style>
.left path{animation:left 5s infinite linear;}
@keyframes left{
  0%{transform:translateX(0)}
  100%{transform:translateX(-100%)}
}
</style>
<rect width="300" height="100" fill="url(#paint0_linear_1_68)"/>
<mask id="mask0_1_68" style="mask-type:alpha" maskUnits="userSpaceOnUse" x="29" y="18" width="236" height="69">
<rect x="29" y="18" width="236" height="69" fill="#D9D9D9"/>
</mask>
<g mask="url(#mask0_1_68)" class="left">
<path d="M-281 67.8H-241V27.8H-281V67.8ZM-231.511 65.5114C-232.894 65.5114 -234.149 65.2509 -235.276 64.7301C-236.402 64.1998 -237.297 63.4375 -237.96 62.4432C-238.623 61.4394 -238.955 60.2273 -238.955 58.8068C-238.955 57.5568 -238.708 56.5436 -238.216 55.767C-237.723 54.9811 -237.065 54.3655 -236.241 53.9205C-235.418 53.4754 -234.509 53.1439 -233.514 52.9261C-232.51 52.6989 -231.502 52.5189 -230.489 52.3864C-229.163 52.2159 -228.088 52.0881 -227.264 52.0028C-226.431 51.9081 -225.825 51.7519 -225.446 51.5341C-225.058 51.3163 -224.864 50.9375 -224.864 50.3977V50.2841C-224.864 48.8826 -225.247 47.7936 -226.014 47.017C-226.772 46.2405 -227.922 45.8523 -229.466 45.8523C-231.066 45.8523 -232.321 46.2027 -233.23 46.9034C-234.139 47.6042 -234.778 48.3523 -235.148 49.1477L-238.33 48.0114C-237.761 46.6856 -237.004 45.6534 -236.057 44.9148C-235.1 44.1667 -234.059 43.6458 -232.932 43.3523C-231.795 43.0492 -230.678 42.8977 -229.58 42.8977C-228.879 42.8977 -228.074 42.983 -227.165 43.1534C-226.246 43.3144 -225.361 43.6506 -224.509 44.1619C-223.647 44.6733 -222.932 45.4451 -222.364 46.4773C-221.795 47.5095 -221.511 48.892 -221.511 50.625V65H-224.864V62.0455H-225.034C-225.261 62.5189 -225.64 63.0256 -226.17 63.5653C-226.701 64.1051 -227.406 64.5644 -228.287 64.9432C-229.168 65.322 -230.242 65.5114 -231.511 65.5114ZM-231 62.5C-229.674 62.5 -228.557 62.2396 -227.648 61.7188C-226.729 61.1979 -226.038 60.5256 -225.574 59.7017C-225.1 58.8778 -224.864 58.0114 -224.864 57.1023V54.0341C-225.006 54.2045 -225.318 54.3608 -225.801 54.5028C-226.275 54.6354 -226.824 54.7538 -227.449 54.858C-228.064 54.9527 -228.666 55.0379 -229.253 55.1136C-229.83 55.1799 -230.299 55.2367 -230.659 55.2841C-231.53 55.3977 -232.345 55.5824 -233.102 55.8381C-233.85 56.0843 -234.456 56.4583 -234.92 56.9602C-235.375 57.4527 -235.602 58.125 -235.602 58.9773C-235.602 60.142 -235.171 61.0227 -234.31 61.6193C-233.438 62.2064 -232.335 62.5 -231 62.5ZM-199.938 48.0682L-202.95 48.9205C-203.139 48.4186 -203.418 47.9309 -203.788 47.4574C-204.147 46.9744 -204.64 46.5767 -205.265 46.2642C-205.89 45.9517 -206.69 45.7955 -207.665 45.7955C-209.001 45.7955 -210.113 46.1032 -211.004 46.7188C-211.884 47.3248 -212.325 48.0966 -212.325 49.0341C-212.325 49.8674 -212.022 50.5256 -211.415 51.0085C-210.809 51.4915 -209.862 51.8939 -208.575 52.2159L-205.336 53.0114C-203.385 53.4848 -201.932 54.2093 -200.975 55.1847C-200.019 56.1506 -199.54 57.3958 -199.54 58.9205C-199.54 60.1705 -199.9 61.2879 -200.62 62.2727C-201.33 63.2576 -202.325 64.0341 -203.603 64.6023C-204.881 65.1705 -206.368 65.4545 -208.063 65.4545C-210.289 65.4545 -212.13 64.9716 -213.589 64.0057C-215.047 63.0398 -215.97 61.6288 -216.359 59.7727L-213.177 58.9773C-212.874 60.1515 -212.301 61.0322 -211.458 61.6193C-210.606 62.2064 -209.493 62.5 -208.12 62.5C-206.558 62.5 -205.317 62.1686 -204.398 61.5057C-203.47 60.8333 -203.006 60.0284 -203.006 59.0909C-203.006 58.3333 -203.272 57.6989 -203.802 57.1875C-204.332 56.6667 -205.147 56.2784 -206.245 56.0227L-209.881 55.1705C-211.879 54.697 -213.347 53.9631 -214.285 52.9688C-215.213 51.965 -215.677 50.7102 -215.677 49.2045C-215.677 47.9735 -215.331 46.8845 -214.64 45.9375C-213.939 44.9905 -212.987 44.2472 -211.785 43.7074C-210.573 43.1676 -209.2 42.8977 -207.665 42.8977C-205.506 42.8977 -203.811 43.3712 -202.58 44.3182C-201.34 45.2652 -200.459 46.5152 -199.938 48.0682ZM-186.256 65.4545C-188.074 65.4545 -189.679 64.9953 -191.071 64.0767C-192.463 63.1487 -193.552 61.8419 -194.338 60.1562C-195.124 58.4612 -195.517 56.4583 -195.517 54.1477C-195.517 51.8561 -195.124 49.8674 -194.338 48.1818C-193.552 46.4962 -192.458 45.1941 -191.057 44.2756C-189.655 43.357 -188.036 42.8977 -186.199 42.8977C-184.778 42.8977 -183.656 43.1345 -182.832 43.608C-181.999 44.072 -181.365 44.6023 -180.929 45.1989C-180.484 45.786 -180.138 46.2689 -179.892 46.6477H-179.608V35.9091H-176.256V65H-179.494V61.6477H-179.892C-180.138 62.0455 -180.489 62.5473 -180.943 63.1534C-181.398 63.75 -182.046 64.285 -182.889 64.7585C-183.732 65.2225 -184.854 65.4545 -186.256 65.4545ZM-185.801 62.4432C-184.456 62.4432 -183.32 62.0928 -182.392 61.392C-181.464 60.6818 -180.759 59.7017 -180.276 58.4517C-179.793 57.1922 -179.551 55.7386 -179.551 54.0909C-179.551 52.4621 -179.788 51.0369 -180.261 49.8153C-180.735 48.5843 -181.436 47.6278 -182.364 46.946C-183.292 46.2547 -184.437 45.9091 -185.801 45.9091C-187.222 45.9091 -188.405 46.2737 -189.352 47.0028C-190.29 47.7225 -190.995 48.7027 -191.469 49.9432C-191.933 51.1742 -192.165 52.5568 -192.165 54.0909C-192.165 55.6439 -191.928 57.0549 -191.455 58.3239C-190.972 59.5833 -190.261 60.5871 -189.324 61.3352C-188.377 62.0739 -187.203 62.4432 -185.801 62.4432ZM-169.651 65V43.1818H-166.412V46.4773H-166.185C-165.787 45.3977 -165.067 44.5218 -164.026 43.8494C-162.984 43.1771 -161.81 42.8409 -160.503 42.8409C-160.257 42.8409 -159.949 42.8456 -159.58 42.8551C-159.21 42.8646 -158.931 42.8788 -158.741 42.8977V46.3068C-158.855 46.2784 -159.116 46.2358 -159.523 46.179C-159.92 46.1127 -160.342 46.0795 -160.787 46.0795C-161.848 46.0795 -162.795 46.3021 -163.628 46.7472C-164.452 47.1828 -165.105 47.7888 -165.588 48.5653C-166.062 49.3324 -166.298 50.2083 -166.298 51.1932V65H-169.651ZM-147.193 65.4545C-149.011 65.4545 -150.616 64.9953 -152.009 64.0767C-153.401 63.1487 -154.49 61.8419 -155.276 60.1562C-156.062 58.4612 -156.455 56.4583 -156.455 54.1477C-156.455 51.8561 -156.062 49.8674 -155.276 48.1818C-154.49 46.4962 -153.396 45.1941 -151.994 44.2756C-150.593 43.357 -148.973 42.8977 -147.136 42.8977C-145.716 42.8977 -144.594 43.1345 -143.77 43.608C-142.937 44.072 -142.302 44.6023 -141.866 45.1989C-141.421 45.786 -141.076 46.2689 -140.83 46.6477H-140.545V35.9091H-137.193V65H-140.432V61.6477H-140.83C-141.076 62.0455 -141.426 62.5473 -141.881 63.1534C-142.335 63.75 -142.984 64.285 -143.827 64.7585C-144.67 65.2225 -145.792 65.4545 -147.193 65.4545ZM-146.739 62.4432C-145.394 62.4432 -144.258 62.0928 -143.33 61.392C-142.402 60.6818 -141.696 59.7017 -141.213 58.4517C-140.73 57.1922 -140.489 55.7386 -140.489 54.0909C-140.489 52.4621 -140.725 51.0369 -141.199 49.8153C-141.672 48.5843 -142.373 47.6278 -143.301 46.946C-144.229 46.2547 -145.375 45.9091 -146.739 45.9091C-148.159 45.9091 -149.343 46.2737 -150.29 47.0028C-151.227 47.7225 -151.933 48.7027 -152.406 49.9432C-152.87 51.1742 -153.102 52.5568 -153.102 54.0909C-153.102 55.6439 -152.866 57.0549 -152.392 58.3239C-151.909 59.5833 -151.199 60.5871 -150.261 61.3352C-149.314 62.0739 -148.14 62.4432 -146.739 62.4432ZM-133.656 67.8H-93.6562V27.8H-133.656V67.8ZM-72.7472 43.1818L-80.8153 65H-84.2244L-92.2926 43.1818H-88.6562L-82.6335 60.5682H-82.4062L-76.3835 43.1818H-72.7472ZM-58.6065 43.1818V46.0227H-70.3679V43.1818H-58.6065ZM-66.8452 65V40.1705C-66.8452 38.9205 -66.5516 37.8788 -65.9645 37.0455C-65.3774 36.2121 -64.6151 35.5871 -63.6776 35.1705C-62.7401 34.7538 -61.7505 34.5455 -60.7088 34.5455C-59.8849 34.5455 -59.2126 34.6117 -58.6918 34.7443C-58.1709 34.8769 -57.7827 35 -57.527 35.1136L-58.4929 38.0114C-58.6634 37.9545 -58.9001 37.8835 -59.2031 37.7983C-59.4967 37.7131 -59.8849 37.6705 -60.3679 37.6705C-61.4759 37.6705 -62.276 37.9498 -62.7685 38.5085C-63.2514 39.0672 -63.4929 39.8864 -63.4929 40.9659V65H-66.8452ZM-46.5682 65.4545C-48.3864 65.4545 -49.9915 64.9953 -51.3835 64.0767C-52.7756 63.1487 -53.8646 61.8419 -54.6506 60.1562C-55.4366 58.4612 -55.8295 56.4583 -55.8295 54.1477C-55.8295 51.8561 -55.4366 49.8674 -54.6506 48.1818C-53.8646 46.4962 -52.7708 45.1941 -51.3693 44.2756C-49.9678 43.357 -48.3485 42.8977 -46.5114 42.8977C-45.0909 42.8977 -43.9687 43.1345 -43.1449 43.608C-42.3116 44.072 -41.6771 44.6023 -41.2415 45.1989C-40.7964 45.786 -40.4508 46.2689 -40.2045 46.6477H-39.9205V35.9091H-36.5682V65H-39.8068V61.6477H-40.2045C-40.4508 62.0455 -40.8011 62.5473 -41.2557 63.1534C-41.7102 63.75 -42.3589 64.285 -43.2017 64.7585C-44.0445 65.2225 -45.1667 65.4545 -46.5682 65.4545ZM-46.1136 62.4432C-44.7689 62.4432 -43.6326 62.0928 -42.7045 61.392C-41.7765 60.6818 -41.071 59.7017 -40.5881 58.4517C-40.1051 57.1922 -39.8636 55.7386 -39.8636 54.0909C-39.8636 52.4621 -40.1004 51.0369 -40.5739 49.8153C-41.0473 48.5843 -41.7481 47.6278 -42.6761 46.946C-43.6042 46.2547 -44.75 45.9091 -46.1136 45.9091C-47.5341 45.9091 -48.7178 46.2737 -49.6648 47.0028C-50.6023 47.7225 -51.3078 48.7027 -51.7812 49.9432C-52.2453 51.1742 -52.4773 52.5568 -52.4773 54.0909C-52.4773 55.6439 -52.2405 57.0549 -51.767 58.3239C-51.2841 59.5833 -50.5739 60.5871 -49.6364 61.3352C-48.6894 62.0739 -47.5152 62.4432 -46.1136 62.4432ZM-21.1562 73.6364C-22.7756 73.6364 -24.1676 73.428 -25.3324 73.0114C-26.4972 72.6042 -27.4678 72.0644 -28.2443 71.392C-29.0114 70.7292 -29.6222 70.0189 -30.0767 69.2614L-27.4062 67.3864C-27.1032 67.7841 -26.7197 68.2386 -26.2557 68.75C-25.7917 69.2708 -25.1572 69.7206 -24.3523 70.0994C-23.5379 70.4877 -22.4725 70.6818 -21.1562 70.6818C-19.3949 70.6818 -17.9413 70.2557 -16.7955 69.4034C-15.6496 68.5511 -15.0767 67.2159 -15.0767 65.3977V60.9659H-15.3608C-15.607 61.3636 -15.9574 61.8561 -16.4119 62.4432C-16.857 63.0208 -17.5009 63.5369 -18.3438 63.9915C-19.1771 64.4366 -20.304 64.6591 -21.7244 64.6591C-23.4858 64.6591 -25.0672 64.2424 -26.4688 63.4091C-27.8608 62.5758 -28.964 61.3636 -29.7784 59.7727C-30.5833 58.1818 -30.9858 56.25 -30.9858 53.9773C-30.9858 51.7424 -30.5928 49.7964 -29.8068 48.1392C-29.0208 46.4725 -27.9271 45.1847 -26.5256 44.2756C-25.1241 43.357 -23.5047 42.8977 -21.6676 42.8977C-20.2472 42.8977 -19.1203 43.1345 -18.2869 43.608C-17.4441 44.072 -16.8002 44.6023 -16.3551 45.1989C-15.9006 45.786 -15.5502 46.2689 -15.304 46.6477H-14.9631V43.1818H-11.7244V65.625C-11.7244 67.5 -12.1506 69.0246 -13.0028 70.1989C-13.8456 71.3826 -14.982 72.2491 -16.4119 72.7983C-17.8324 73.357 -19.4138 73.6364 -21.1562 73.6364ZM-21.2699 61.6477C-19.9252 61.6477 -18.7888 61.34 -17.8608 60.7244C-16.9328 60.1089 -16.2273 59.2235 -15.7443 58.0682C-15.2614 56.9129 -15.0199 55.5303 -15.0199 53.9205C-15.0199 52.3485 -15.2566 50.9612 -15.7301 49.7585C-16.2036 48.5559 -16.9044 47.6136 -17.8324 46.9318C-18.7604 46.25 -19.9062 45.9091 -21.2699 45.9091C-22.6903 45.9091 -23.8741 46.2689 -24.821 46.9886C-25.7585 47.7083 -26.464 48.6742 -26.9375 49.8864C-27.4015 51.0985 -27.6335 52.4432 -27.6335 53.9205C-27.6335 55.4356 -27.3968 56.7756 -26.9233 57.9403C-26.4403 59.0956 -25.7301 60.0047 -24.7926 60.6676C-23.8456 61.321 -22.6714 61.6477 -21.2699 61.6477ZM-2.2358 35.9091V65H-5.58807V35.9091H-2.2358ZM10.3246 65.5114C8.942 65.5114 7.68726 65.2509 6.56037 64.7301C5.43348 64.1998 4.53859 63.4375 3.87571 62.4432C3.21283 61.4394 2.88139 60.2273 2.88139 58.8068C2.88139 57.5568 3.1276 56.5436 3.62003 55.767C4.11245 54.9811 4.7706 54.3655 5.59446 53.9205C6.41832 53.4754 7.32741 53.1439 8.32173 52.9261C9.32552 52.6989 10.334 52.5189 11.3473 52.3864C12.6731 52.2159 13.7479 52.0881 14.5717 52.0028C15.4051 51.9081 16.0111 51.7519 16.3899 51.5341C16.7782 51.3163 16.9723 50.9375 16.9723 50.3977V50.2841C16.9723 48.8826 16.5888 47.7936 15.8217 47.017C15.0642 46.2405 13.9136 45.8523 12.37 45.8523C10.7696 45.8523 9.51492 46.2027 8.60582 46.9034C7.69673 47.6042 7.05753 48.3523 6.68821 49.1477L3.50639 48.0114C4.07457 46.6856 4.83215 45.6534 5.77912 44.9148C6.73556 44.1667 7.77723 43.6458 8.90412 43.3523C10.0405 43.0492 11.1579 42.8977 12.2564 42.8977C12.9571 42.8977 13.7621 42.983 14.6712 43.1534C15.5897 43.3144 16.4751 43.6506 17.3274 44.1619C18.1892 44.6733 18.9041 45.4451 19.4723 46.4773C20.0405 47.5095 20.3246 48.892 20.3246 50.625V65H16.9723V62.0455H16.8018C16.5746 62.5189 16.1958 63.0256 15.6655 63.5653C15.1352 64.1051 14.4297 64.5644 13.549 64.9432C12.6683 65.322 11.5935 65.5114 10.3246 65.5114ZM10.8359 62.5C12.1617 62.5 13.2791 62.2396 14.1882 61.7188C15.1068 61.1979 15.7981 60.5256 16.2621 59.7017C16.7356 58.8778 16.9723 58.0114 16.9723 57.1023V54.0341C16.8303 54.2045 16.5178 54.3608 16.0348 54.5028C15.5613 54.6354 15.0121 54.7538 14.3871 54.858C13.7715 54.9527 13.1702 55.0379 12.5831 55.1136C12.0054 55.1799 11.5367 55.2367 11.1768 55.2841C10.3056 55.3977 9.49124 55.5824 8.73366 55.8381C7.98556 56.0843 7.3795 56.4583 6.91548 56.9602C6.46094 57.4527 6.23366 58.125 6.23366 58.9773C6.23366 60.142 6.66454 61.0227 7.52628 61.6193C8.39749 62.2064 9.50071 62.5 10.8359 62.5ZM36.1591 43.1818V46.0227H24.3977V43.1818H36.1591ZM27.9205 65V40.1705C27.9205 38.9205 28.214 37.8788 28.8011 37.0455C29.3883 36.2121 30.1506 35.5871 31.0881 35.1705C32.0256 34.7538 33.0152 34.5455 34.0568 34.5455C34.8807 34.5455 35.553 34.6117 36.0739 34.7443C36.5947 34.8769 36.983 35 37.2386 35.1136L36.2727 38.0114C36.1023 37.9545 35.8655 37.8835 35.5625 37.7983C35.2689 37.7131 34.8807 37.6705 34.3977 37.6705C33.2898 37.6705 32.4896 37.9498 31.9972 38.5085C31.5142 39.0672 31.2727 39.8864 31.2727 40.9659V65H27.9205ZM40.8572 43.1818H44.2095V66.5909C44.2095 67.9356 43.9775 69.1004 43.5135 70.0852C43.0589 71.0701 42.3677 71.8324 41.4396 72.3722C40.5211 72.9119 39.361 73.1818 37.9595 73.1818C37.8459 73.1818 37.7322 73.1818 37.6186 73.1818C37.505 73.1818 37.3913 73.1818 37.2777 73.1818V70.0568C37.3913 70.0568 37.4955 70.0568 37.5902 70.0568C37.6849 70.0568 37.7891 70.0568 37.9027 70.0568C38.9254 70.0568 39.6735 69.7538 40.147 69.1477C40.6205 68.5511 40.8572 67.6989 40.8572 66.5909V43.1818ZM42.505 39.5455C41.8516 39.5455 41.2881 39.3229 40.8146 38.8778C40.3506 38.4328 40.1186 37.8977 40.1186 37.2727C40.1186 36.6477 40.3506 36.1127 40.8146 35.6676C41.2881 35.2225 41.8516 35 42.505 35C43.1584 35 43.7171 35.2225 44.1811 35.6676C44.6546 36.1127 44.8913 36.6477 44.8913 37.2727C44.8913 37.8977 44.6546 38.4328 44.1811 38.8778C43.7171 39.3229 43.1584 39.5455 42.505 39.5455ZM58.5881 65.4545C56.7699 65.4545 55.1648 64.9953 53.7727 64.0767C52.3807 63.1487 51.2917 61.8419 50.5057 60.1562C49.7197 58.4612 49.3267 56.4583 49.3267 54.1477C49.3267 51.8561 49.7197 49.8674 50.5057 48.1818C51.2917 46.4962 52.3854 45.1941 53.7869 44.2756C55.1884 43.357 56.8078 42.8977 58.6449 42.8977C60.0653 42.8977 61.1875 43.1345 62.0114 43.608C62.8447 44.072 63.4792 44.6023 63.9148 45.1989C64.3598 45.786 64.7055 46.2689 64.9517 46.6477H65.2358V35.9091H68.5881V65H65.3494V61.6477H64.9517C64.7055 62.0455 64.3551 62.5473 63.9006 63.1534C63.446 63.75 62.7973 64.285 61.9545 64.7585C61.1117 65.2225 59.9896 65.4545 58.5881 65.4545ZM59.0426 62.4432C60.3873 62.4432 61.5237 62.0928 62.4517 61.392C63.3797 60.6818 64.0852 59.7017 64.5682 58.4517C65.0511 57.1922 65.2926 55.7386 65.2926 54.0909C65.2926 52.4621 65.0559 51.0369 64.5824 49.8153C64.1089 48.5843 63.4081 47.6278 62.4801 46.946C61.5521 46.2547 60.4063 45.9091 59.0426 45.9091C57.6222 45.9091 56.4384 46.2737 55.4915 47.0028C54.554 47.7225 53.8485 48.7027 53.375 49.9432C52.911 51.1742 52.679 52.5568 52.679 54.0909C52.679 55.6439 52.9157 57.0549 53.3892 58.3239C53.8722 59.5833 54.5824 60.5871 55.5199 61.3352C56.4669 62.0739 57.6411 62.4432 59.0426 62.4432ZM78.3182 57.0455L78.2614 52.8977H78.9432L88.4886 43.1818H92.6364L82.4659 53.4659H82.1818L78.3182 57.0455ZM75.1932 65V35.9091H78.5455V65H75.1932ZM89.0568 65L80.5341 54.2045L82.9205 51.875L93.3182 65H89.0568ZM112.406 48.0682L109.394 48.9205C109.205 48.4186 108.925 47.9309 108.556 47.4574C108.196 46.9744 107.704 46.5767 107.079 46.2642C106.454 45.9517 105.654 45.7955 104.678 45.7955C103.343 45.7955 102.23 46.1032 101.34 46.7188C100.46 47.3248 100.019 48.0966 100.019 49.0341C100.019 49.8674 100.322 50.5256 100.928 51.0085C101.534 51.4915 102.481 51.8939 103.769 52.2159L107.008 53.0114C108.959 53.4848 110.412 54.2093 111.369 55.1847C112.325 56.1506 112.803 57.3958 112.803 58.9205C112.803 60.1705 112.443 61.2879 111.724 62.2727C111.013 63.2576 110.019 64.0341 108.741 64.6023C107.462 65.1705 105.976 65.4545 104.281 65.4545C102.055 65.4545 100.213 64.9716 98.755 64.0057C97.2966 63.0398 96.3733 61.6288 95.9851 59.7727L99.1669 58.9773C99.4699 60.1515 100.043 61.0322 100.886 61.6193C101.738 62.2064 102.851 62.5 104.224 62.5C105.786 62.5 107.027 62.1686 107.945 61.5057C108.873 60.8333 109.337 60.0284 109.337 59.0909C109.337 58.3333 109.072 57.6989 108.542 57.1875C108.012 56.6667 107.197 56.2784 106.099 56.0227L102.462 55.1705C100.464 54.697 98.9964 53.9631 98.0589 52.9688C97.1309 51.965 96.6669 50.7102 96.6669 49.2045C96.6669 47.9735 97.0125 46.8845 97.7038 45.9375C98.4046 44.9905 99.3563 44.2472 100.559 43.7074C101.771 43.1676 103.144 42.8977 104.678 42.8977C106.837 42.8977 108.532 43.3712 109.763 44.3182C111.004 45.2652 111.885 46.5152 112.406 48.0682ZM124.27 65.5114C122.887 65.5114 121.633 65.2509 120.506 64.7301C119.379 64.1998 118.484 63.4375 117.821 62.4432C117.158 61.4394 116.827 60.2273 116.827 58.8068C116.827 57.5568 117.073 56.5436 117.565 55.767C118.058 54.9811 118.716 54.3655 119.54 53.9205C120.364 53.4754 121.273 53.1439 122.267 52.9261C123.271 52.6989 124.279 52.5189 125.293 52.3864C126.618 52.2159 127.693 52.0881 128.517 52.0028C129.35 51.9081 129.956 51.7519 130.335 51.5341C130.723 51.3163 130.918 50.9375 130.918 50.3977V50.2841C130.918 48.8826 130.534 47.7936 129.767 47.017C129.009 46.2405 127.859 45.8523 126.315 45.8523C124.715 45.8523 123.46 46.2027 122.551 46.9034C121.642 47.6042 121.003 48.3523 120.634 49.1477L117.452 48.0114C118.02 46.6856 118.777 45.6534 119.724 44.9148C120.681 44.1667 121.723 43.6458 122.849 43.3523C123.986 43.0492 125.103 42.8977 126.202 42.8977C126.902 42.8977 127.707 42.983 128.616 43.1534C129.535 43.3144 130.42 43.6506 131.273 44.1619C132.134 44.6733 132.849 45.4451 133.418 46.4773C133.986 47.5095 134.27 48.892 134.27 50.625V65H130.918V62.0455H130.747C130.52 62.5189 130.141 63.0256 129.611 63.5653C129.08 64.1051 128.375 64.5644 127.494 64.9432C126.614 65.322 125.539 65.5114 124.27 65.5114ZM124.781 62.5C126.107 62.5 127.224 62.2396 128.134 61.7188C129.052 61.1979 129.743 60.5256 130.207 59.7017C130.681 58.8778 130.918 58.0114 130.918 57.1023V54.0341C130.776 54.2045 130.463 54.3608 129.98 54.5028C129.507 54.6354 128.957 54.7538 128.332 54.858C127.717 54.9527 127.116 55.0379 126.528 55.1136C125.951 55.1799 125.482 55.2367 125.122 55.2841C124.251 55.3977 123.437 55.5824 122.679 55.8381C121.931 56.0843 121.325 56.4583 120.861 56.9602C120.406 57.4527 120.179 58.125 120.179 58.9773C120.179 60.142 120.61 61.0227 121.472 61.6193C122.343 62.2064 123.446 62.5 124.781 62.5ZM148.627 65.4545C146.809 65.4545 145.204 64.9953 143.812 64.0767C142.42 63.1487 141.331 61.8419 140.545 60.1562C139.759 58.4612 139.366 56.4583 139.366 54.1477C139.366 51.8561 139.759 49.8674 140.545 48.1818C141.331 46.4962 142.424 45.1941 143.826 44.2756C145.228 43.357 146.847 42.8977 148.684 42.8977C150.104 42.8977 151.227 43.1345 152.05 43.608C152.884 44.072 153.518 44.6023 153.954 45.1989C154.399 45.786 154.745 46.2689 154.991 46.6477H155.275V35.9091H158.627V65H155.388V61.6477H154.991C154.745 62.0455 154.394 62.5473 153.94 63.1534C153.485 63.75 152.836 64.285 151.994 64.7585C151.151 65.2225 150.029 65.4545 148.627 65.4545ZM149.082 62.4432C150.426 62.4432 151.563 62.0928 152.491 61.392C153.419 60.6818 154.124 59.7017 154.607 58.4517C155.09 57.1922 155.332 55.7386 155.332 54.0909C155.332 52.4621 155.095 51.0369 154.621 49.8153C154.148 48.5843 153.447 47.6278 152.519 46.946C151.591 46.2547 150.445 45.9091 149.082 45.9091C147.661 45.9091 146.478 46.2737 145.531 47.0028C144.593 47.7225 143.888 48.7027 143.414 49.9432C142.95 51.1742 142.718 52.5568 142.718 54.0909C142.718 55.6439 142.955 57.0549 143.428 58.3239C143.911 59.5833 144.621 60.5871 145.559 61.3352C146.506 62.0739 147.68 62.4432 149.082 62.4432ZM168.585 51.875V65H165.232V43.1818H168.471V46.5909H168.755C169.266 45.483 170.043 44.5928 171.085 43.9205C172.126 43.2386 173.471 42.8977 175.119 42.8977C176.596 42.8977 177.888 43.2008 178.996 43.8068C180.104 44.4034 180.966 45.3125 181.582 46.5341C182.197 47.7462 182.505 49.2803 182.505 51.1364V65H179.153V51.3636C179.153 49.6496 178.708 48.3144 177.817 47.358C176.927 46.392 175.706 45.9091 174.153 45.9091C173.083 45.9091 172.126 46.1411 171.283 46.6051C170.45 47.0691 169.792 47.7462 169.309 48.6364C168.826 49.5265 168.585 50.6061 168.585 51.875ZM185.562 67.8H225.562V27.8H185.562V67.8ZM225.562 67.8H265.562V27.8H225.562V67.8ZM268.631 65V43.1818H271.869V46.5909H272.153C272.608 45.4261 273.342 44.5218 274.355 43.8778C275.368 43.2244 276.585 42.8977 278.006 42.8977C279.445 42.8977 280.643 43.2244 281.599 43.8778C282.565 44.5218 283.318 45.4261 283.858 46.5909H284.085C284.644 45.464 285.482 44.5691 286.599 43.9062C287.717 43.2339 289.057 42.8977 290.619 42.8977C292.57 42.8977 294.166 43.5085 295.406 44.7301C296.647 45.9422 297.267 47.8314 297.267 50.3977V65H293.915V50.3977C293.915 48.7879 293.474 47.6373 292.594 46.946C291.713 46.2547 290.676 45.9091 289.483 45.9091C287.949 45.9091 286.76 46.3731 285.918 47.3011C285.075 48.2197 284.653 49.3845 284.653 50.7955V65H281.244V50.0568C281.244 48.8163 280.842 47.8172 280.037 47.0597C279.232 46.2926 278.195 45.9091 276.926 45.9091C276.055 45.9091 275.241 46.1411 274.483 46.6051C273.735 47.0691 273.129 47.7131 272.665 48.5369C272.21 49.3513 271.983 50.2936 271.983 51.3636V65H268.631ZM306.521 57.0455L306.464 52.8977H307.146L316.692 43.1818H320.839L310.669 53.4659H310.385L306.521 57.0455ZM303.396 65V35.9091H306.749V65H303.396ZM317.26 65L308.737 54.2045L311.124 51.875L321.521 65H317.26ZM340.609 48.0682L337.597 48.9205C337.408 48.4186 337.129 47.9309 336.759 47.4574C336.399 46.9744 335.907 46.5767 335.282 46.2642C334.657 45.9517 333.857 45.7955 332.881 45.7955C331.546 45.7955 330.433 46.1032 329.543 46.7188C328.663 47.3248 328.222 48.0966 328.222 49.0341C328.222 49.8674 328.525 50.5256 329.131 51.0085C329.737 51.4915 330.684 51.8939 331.972 52.2159L335.211 53.0114C337.162 53.4848 338.615 54.2093 339.572 55.1847C340.528 56.1506 341.006 57.3958 341.006 58.9205C341.006 60.1705 340.647 61.2879 339.927 62.2727C339.217 63.2576 338.222 64.0341 336.944 64.6023C335.665 65.1705 334.179 65.4545 332.484 65.4545C330.258 65.4545 328.416 64.9716 326.958 64.0057C325.5 63.0398 324.576 61.6288 324.188 59.7727L327.37 58.9773C327.673 60.1515 328.246 61.0322 329.089 61.6193C329.941 62.2064 331.054 62.5 332.427 62.5C333.989 62.5 335.23 62.1686 336.148 61.5057C337.076 60.8333 337.54 60.0284 337.54 59.0909C337.54 58.3333 337.275 57.6989 336.745 57.1875C336.215 56.6667 335.4 56.2784 334.302 56.0227L330.665 55.1705C328.667 54.697 327.2 53.9631 326.262 52.9688C325.334 51.965 324.87 50.7102 324.87 49.2045C324.87 47.9735 325.216 46.8845 325.907 45.9375C326.608 44.9905 327.559 44.2472 328.762 43.7074C329.974 43.1676 331.347 42.8977 332.881 42.8977C335.04 42.8977 336.736 43.3712 337.967 44.3182C339.207 45.2652 340.088 46.5152 340.609 48.0682ZM354.859 73.6364C353.24 73.6364 351.848 73.428 350.683 73.0114C349.518 72.6042 348.548 72.0644 347.771 71.392C347.004 70.7292 346.393 70.0189 345.939 69.2614L348.609 67.3864C348.912 67.7841 349.296 68.2386 349.76 68.75C350.224 69.2708 350.858 69.7206 351.663 70.0994C352.478 70.4877 353.543 70.6818 354.859 70.6818C356.621 70.6818 358.074 70.2557 359.22 69.4034C360.366 68.5511 360.939 67.2159 360.939 65.3977V60.9659H360.655C360.409 61.3636 360.058 61.8561 359.604 62.4432C359.159 63.0208 358.515 63.5369 357.672 63.9915C356.839 64.4366 355.712 64.6591 354.291 64.6591C352.53 64.6591 350.948 64.2424 349.547 63.4091C348.155 62.5758 347.052 61.3636 346.237 59.7727C345.432 58.1818 345.03 56.25 345.03 53.9773C345.03 51.7424 345.423 49.7964 346.209 48.1392C346.995 46.4725 348.089 45.1847 349.49 44.2756C350.892 43.357 352.511 42.8977 354.348 42.8977C355.768 42.8977 356.895 43.1345 357.729 43.608C358.571 44.072 359.215 44.6023 359.661 45.1989C360.115 45.786 360.465 46.2689 360.712 46.6477H361.053V43.1818H364.291V65.625C364.291 67.5 363.865 69.0246 363.013 70.1989C362.17 71.3826 361.034 72.2491 359.604 72.7983C358.183 73.357 356.602 73.6364 354.859 73.6364ZM354.746 61.6477C356.09 61.6477 357.227 61.34 358.155 60.7244C359.083 60.1089 359.788 59.2235 360.271 58.0682C360.754 56.9129 360.996 55.5303 360.996 53.9205C360.996 52.3485 360.759 50.9612 360.286 49.7585C359.812 48.5559 359.111 47.6136 358.183 46.9318C357.255 46.25 356.109 45.9091 354.746 45.9091C353.325 45.9091 352.142 46.2689 351.195 46.9886C350.257 47.7083 349.552 48.6742 349.078 49.8864C348.614 51.0985 348.382 52.4432 348.382 53.9205C348.382 55.4356 348.619 56.7756 349.092 57.9403C349.575 59.0956 350.286 60.0047 351.223 60.6676C352.17 61.321 353.344 61.6477 354.746 61.6477ZM373.78 51.875V65H370.428V43.1818H373.666V46.5909H373.95C374.462 45.483 375.238 44.5928 376.28 43.9205C377.321 43.2386 378.666 42.8977 380.314 42.8977C381.791 42.8977 383.084 43.2008 384.192 43.8068C385.3 44.4034 386.161 45.3125 386.777 46.5341C387.393 47.7462 387.7 49.2803 387.7 51.1364V65H384.348V51.3636C384.348 49.6496 383.903 48.3144 383.013 47.358C382.123 46.392 380.901 45.9091 379.348 45.9091C378.278 45.9091 377.321 46.1411 376.479 46.6051C375.645 47.0691 374.987 47.7462 374.504 48.6364C374.021 49.5265 373.78 50.6061 373.78 51.875ZM393.826 65V43.1818H397.065V46.5909H397.349C397.803 45.4261 398.537 44.5218 399.55 43.8778C400.564 43.2244 401.781 42.8977 403.201 42.8977C404.64 42.8977 405.838 43.2244 406.795 43.8778C407.761 44.5218 408.513 45.4261 409.053 46.5909H409.281C409.839 45.464 410.677 44.5691 411.795 43.9062C412.912 43.2339 414.252 42.8977 415.815 42.8977C417.765 42.8977 419.361 43.5085 420.602 44.7301C421.842 45.9422 422.462 47.8314 422.462 50.3977V65H419.11V50.3977C419.11 48.7879 418.67 47.6373 417.789 46.946C416.908 46.2547 415.871 45.9091 414.678 45.9091C413.144 45.9091 411.956 46.3731 411.113 47.3011C410.27 48.2197 409.849 49.3845 409.849 50.7955V65H406.44V50.0568C406.44 48.8163 406.037 47.8172 405.232 47.0597C404.427 46.2926 403.39 45.9091 402.121 45.9091C401.25 45.9091 400.436 46.1411 399.678 46.6051C398.93 47.0691 398.324 47.7131 397.86 48.5369C397.406 49.3513 397.178 50.2936 397.178 51.3636V65H393.826ZM438.308 43.1818V46.0227H426.546V43.1818H438.308ZM430.069 65V40.1705C430.069 38.9205 430.362 37.8788 430.95 37.0455C431.537 36.2121 432.299 35.5871 433.237 35.1705C434.174 34.7538 435.164 34.5455 436.205 34.5455C437.029 34.5455 437.701 34.6117 438.222 34.7443C438.743 34.8769 439.131 35 439.387 35.1136L438.421 38.0114C438.251 37.9545 438.014 37.8835 437.711 37.7983C437.417 37.7131 437.029 37.6705 436.546 37.6705C435.438 37.6705 434.638 37.9498 434.146 38.5085C433.663 39.0672 433.421 39.8864 433.421 40.9659V65H430.069Z" fill="black"/>
</g>
<defs>
<linearGradient id="paint0_linear_1_68" x1="0" y1="50" x2="300" y2="50" gradientUnits="userSpaceOnUse">
<stop stop-color="#AAD873"/>
<stop offset="1" stop-color="#5A723D"/>
</linearGradient>
</defs>
</svg>
